<?xml version="1.0" encoding="utf-8"?>
<!-- Generator: Adobe Illustrator 21.0.2, SVG Export Plug-In . SVG Version: 6.00 Build 0)  -->
<svg version="1.1" id="Layer_1" xmlns="http://www.w3.org/2000/svg" xmlns:xlink="http://www.w3.org/1999/xlink" x="0px" y="0px"
	 viewBox="0 0 213 31.1" style="enable-background:new 0 0 213 31.1;" xml:space="preserve">
<title>alvar-carto-logo-white</title>
<g fill="#999">
	<path d="M27.8,1l7.6-1v23.1c0,1.5,0.7,1.9,1.2,1.9c0.3,0,0.5,0,0.8-0.1l0.9,5.5c-1.2,0.5-2.4,0.7-3.7,0.6c-5.1,0-6.8-3.3-6.8-8.3
		L27.8,1L27.8,1z"/>
	<path d="M38,8.6h7.6l2.4,9.6c0.5,2.2,1.1,4.5,1.6,6.9h0.2c0.5-2.4,1.1-4.7,1.6-6.9l2.4-9.6h7.2l-6.9,22h-8.7L38,8.6z"/>
	<path d="M73.4,16.3c-0.2-1.6-1.1-2.3-3.1-2.3c-1.6,0-3.2,0.6-5.5,1.8L62.1,11c2.9-1.8,6.2-2.8,9.7-2.9c5.7,0,9.1,3.1,9.1,10.3v12.2
		h-6.2l-0.5-2.1h-0.2c-1.6,1.6-3.8,2.6-6.1,2.6c-3.6,0.1-6.5-2.8-6.6-6.3c0-0.2,0-0.3,0-0.4C61.4,19.8,64.9,17.2,73.4,16.3z
		M70.6,25.3c1.1,0,2.1-0.6,2.7-1.5v-3c-3.6,0.5-4.7,1.7-4.7,2.9C68.6,24.7,69.3,25.3,70.6,25.3L70.6,25.3z"/>
	<path d="M124.2,1.5c3.3,0.1,6.4,1.4,8.7,3.8l-4.1,4.7C127.6,8.7,126,8,124.3,8c-3.4,0-6.3,3.1-6.3,8.3c0,5.4,2.5,8.3,6.1,8.3
		c1.9,0,3.8-0.8,5-2.3l4.1,4.6c-2.3,2.7-5.7,4.3-9.2,4.2c-7.5,0-13.8-4.8-13.8-14.6C110.2,6.9,116.8,1.5,124.2,1.5z"/>
	<path d="M147,16.3c-0.2-1.6-1.1-2.3-3.1-2.3c-1.6,0-3.2,0.6-5.5,1.8l-2.6-4.9c2.9-1.8,6.2-2.8,9.7-2.9c5.7,0,9.1,3.1,9.1,10.3v12.2
		h-6.1l-0.5-2.1h-0.2c-1.6,1.6-3.8,2.6-6.1,2.6c-3.6,0.1-6.5-2.8-6.6-6.3c0-0.2,0-0.3,0-0.4C135,19.8,138.5,17.2,147,16.3z
		M144.2,25.3c1.1,0,2.1-0.6,2.7-1.5v-3c-3.6,0.5-4.7,1.7-4.7,2.9C142.2,24.7,142.9,25.3,144.2,25.3L144.2,25.3z"/>
	<path d="M172.6,15c-1.6,0-5.3,0.6-6.4,3.4v12.2h-7.6v-22h6.1l0.5,3.8h0.2c1.6-3,5.9-4,8.1-4L172.6,15z"/>
	<path d="M99,15c-1.6,0-5.3,0.6-6.4,3.4v12.2H85v-22h6.1l0.5,3.8h0.2c1.6-3,5.9-4,8.1-4L99,15z"/>
	<path d="M177.1,14.5h-2V8.9l2.5-0.3l0.9-4.7l6.2-1v5.7h5v5.9h-5V22c0,2.4,1.2,3.2,2.6,3.2c0.7,0,1.3-0.1,1.9-0.4l1.1,5.4
		c-1.7,0.5-3.4,0.8-5.2,0.8c-5.7,0-8.1-3.6-8.1-9L177.1,14.5L177.1,14.5z"/>
	<path d="M202.1,8.1c5.6,0,10.9,4.2,10.9,11.5s-5.3,11.5-10.9,11.5s-10.9-4.2-10.9-11.5S196.5,8.1,202.1,8.1z M202.1,25
		c2.3,0,3.2-2.1,3.2-5.4s-0.9-5.5-3.2-5.5s-3.2,2.1-3.2,5.4S199.9,25,202.1,25L202.1,25z"/>
	<path d="M18.5,30.6h8l-2.8-9l1.2-0.2l-0.1-4.2l-2.4,0.3L17.8,2H8.7L0,30.6h7.7l1.4-6l7.6-1.5L18.5,30.6z M10.4,19l0.5-2.3
		c0.7-2.7,1.4-6.2,2-9h0.2c0.7,2.9,1.4,6.3,2.1,9l0.4,1.6L10.4,19z"/>
</g>
</svg>
