<?xml version="1.0" encoding="UTF-8"?>
<svg width="786px" height="252px" viewBox="0 0 786 252" version="1.1" xmlns="http://www.w3.org/2000/svg" xmlns:xlink="http://www.w3.org/1999/xlink">
    <!-- Generator: Sketch 50.2 (55047) - http://www.bohemiancoding.com/sketch -->
    <title>sifty-logo</title>
    <desc>Created with Sketch.</desc>
    <defs></defs>
    <g id="Page-1" stroke="none" stroke-width="1" fill="none" fill-rule="evenodd">
        <g id="Artboard-2" transform="translate(-194.000000, -194.000000)">
            <g id="Group" transform="translate(194.000000, 194.000000)">
                <path d="M371.5,204 C360.499945,204 349.875051,201.916687 339.625,197.75 C329.374949,193.583313 320.333372,187.666705 312.5,180 L329.5,160.25 C335.333363,165.750028 341.999962,170.208316 349.5,173.625 C357.000038,177.041684 364.499962,178.75 372,178.75 C381.33338,178.75 388.416642,176.833352 393.25,173 C398.083358,169.166648 400.5,164.083365 400.5,157.75 C400.5,154.41665 399.875006,151.583345 398.625,149.25 C397.374994,146.916655 395.625011,144.875009 393.375,143.125 C391.124989,141.374991 388.458349,139.750007 385.375,138.25 C382.291651,136.749993 378.916685,135.250008 375.25,133.75 L352.75,124 C348.74998,122.333325 344.791686,120.250012 340.875,117.75 C336.958314,115.249988 333.416682,112.250018 330.25,108.75 C327.083318,105.249982 324.541676,101.16669 322.625,96.5 C320.708324,91.83331 319.75,86.50003 319.75,80.5 C319.75,73.9999675 321.124986,67.9583612 323.875,62.375 C326.625014,56.7916388 330.416643,51.9166875 335.25,47.75 C340.083357,43.5833125 345.874966,40.333345 352.625,38 C359.375034,35.666655 366.74996,34.5 374.75,34.5 C384.250047,34.5 393.416623,36.3749813 402.25,40.125 C411.083377,43.8750187 418.666635,48.916635 425,55.25 L410.25,73.75 C404.91664,69.416645 399.416695,66.0000125 393.75,63.5 C388.083305,60.9999875 381.750035,59.75 374.75,59.75 C366.916628,59.75 360.66669,61.4583162 356,64.875 C351.33331,68.2916838 349,72.99997 349,79 C349,82.1666825 349.708326,84.8749887 351.125,87.125 C352.541674,89.3750113 354.458321,91.3749912 356.875,93.125 C359.291679,94.8750088 362.083318,96.4583262 365.25,97.875 C368.416682,99.2916738 371.66665,100.66666 375,102 L397.25,111.25 C402.083358,113.25001 406.49998,115.58332 410.5,118.25 C414.50002,120.91668 417.958319,123.999983 420.875,127.5 C423.791681,131.000018 426.083325,135.041644 427.75,139.625 C429.416675,144.208356 430.25,149.49997 430.25,155.5 C430.25,162.1667 428.91668,168.416638 426.25,174.25 C423.58332,180.083363 419.708359,185.208311 414.625,189.625 C409.541641,194.041689 403.375036,197.541654 396.125,200.125 C388.874964,202.708346 380.666713,204 371.5,204 Z M457.5,201 L457.5,78.25 L486.25,78.25 L486.25,201 L457.5,201 Z M472,56.75 C466.833307,56.75 462.58335,55.250015 459.25,52.25 C455.91665,49.249985 454.25,45.3333575 454.25,40.5 C454.25,35.6666425 455.91665,31.7083487 459.25,28.625 C462.58335,25.5416513 466.833307,24 472,24 C477.166693,24 481.41665,25.5416513 484.75,28.625 C488.08335,31.7083487 489.75,35.6666425 489.75,40.5 C489.75,45.3333575 488.08335,49.249985 484.75,52.25 C481.41665,55.250015 477.166693,56.75 472,56.75 Z M528,201 L528,101 L511.5,101 L511.5,79.5 L528,78.25 L528,65.5 C528,59.166635 528.749992,53.2916937 530.25,47.875 C531.750008,42.4583063 534.16665,37.7916862 537.5,33.875 C540.83335,29.9583138 545.041641,26.9166775 550.125,24.75 C555.208359,22.5833225 561.41663,21.5 568.75,21.5 C573.083355,21.5 577.208314,21.9166625 581.125,22.75 C585.041686,23.5833375 588.416653,24.5833275 591.25,25.75 L585.75,47.25 C581.249977,45.24999 576.750023,44.25 572.25,44.25 C561.916615,44.25 556.75,51.1665975 556.75,65 L556.75,78.25 L599,78.25 L602.5,44.75 L626.25,44.75 L626.25,78.25 L657.75,78.25 L657.75,101 L626.25,101 L626.25,159.5 C626.25,173.833405 632.083275,181 643.75,181 C645.916677,181 648.124989,180.750002 650.375,180.25 C652.625011,179.749998 654.666657,179.083337 656.5,178.25 L661.5,199.5 C658.16665,200.666673 654.375021,201.708329 650.125,202.625 C645.874979,203.541671 641.250025,204 636.25,204 C629.249965,204 623.291691,202.916677 618.375,200.75 C613.458309,198.583323 609.458349,195.541686 606.375,191.625 C603.291651,187.708314 601.041674,183.041694 599.625,177.625 C598.208326,172.208306 597.5,166.1667 597.5,159.5 L597.5,101 L556.75,101 L556.75,201 L528,201 Z M691.75,251.5 C688.41665,251.5 685.500013,251.291669 683,250.875 C680.499987,250.458331 678.083345,249.833337 675.75,249 L681,226.5 C682.166673,226.833335 683.541659,227.208331 685.125,227.625 C686.708341,228.041669 688.249992,228.25 689.75,228.25 C696.250032,228.25 701.458314,226.291686 705.375,222.375 C709.291686,218.458314 712.24999,213.416697 714.25,207.25 L716.5,199.5 L668.25,78.25 L697.5,78.25 L718.75,138.5 C720.583343,143.83336 722.374991,149.458304 724.125,155.375 C725.875009,161.291696 727.666658,167.166638 729.5,173 L730.5,173 C732.000008,167.333305 733.541659,161.541696 735.125,155.625 C736.708341,149.708304 738.249992,144.000027 739.75,138.5 L758.25,78.25 L786,78.25 L741.5,206.5 C738.999988,213.500035 736.250015,219.749973 733.25,225.25 C730.249985,230.750027 726.791686,235.458314 722.875,239.375 C718.958314,243.291686 714.458359,246.291656 709.375,248.375 C704.291641,250.458344 698.4167,251.5 691.75,251.5 Z" id="Sifty" fill="#6980F3"></path>
                <g id="Group-2">
                    <circle id="Oval" fill="#6980F3" cx="118.5" cy="118.5" r="118.5"></circle>
                    <g id="Group-4" transform="translate(78.000000, 81.000000)" fill="#FFFFFF">
                        <rect id="Rectangle" x="0" y="0" width="41" height="13" rx="1"></rect>
                        <rect id="Rectangle-Copy" x="0" y="31" width="63" height="13" rx="1"></rect>
                        <rect id="Rectangle-Copy-2" x="0" y="62" width="82" height="13" rx="1"></rect>
                    </g>
                </g>
            </g>
        </g>
    </g>
</svg>